<?xml version="1.0" encoding="UTF-8"?>
<svg width="229px" height="137px" viewBox="0 0 229 137" version="1.1" xmlns="http://www.w3.org/2000/svg" xmlns:xlink="http://www.w3.org/1999/xlink">
    <!-- Generator: Sketch 48.2 (47327) - http://www.bohemiancoding.com/sketch -->
    <title>Group</title>
    <desc>Created with Sketch.</desc>
    <defs></defs>
    <g id="Page-1" stroke="none" stroke-width="1" fill="none" fill-rule="evenodd">
        <g id="Group">
            <polygon id="Shape" fill="#161616" fill-rule="nonzero" points="105.1 38.7 105.1 17.3 109.9 17.3 109.9 33.9 118.3 33.9 118.3 38.7"></polygon>
            <polygon id="Shape" fill="#161616" fill-rule="nonzero" points="128.8 33.9 137.8 33.9 137.8 38.7 124 38.7 124 17.3 137.8 17.3 137.8 22.1 128.8 22.1 128.8 25.4 136.3 25.4 136.3 30.2 128.8 30.2"></polygon>
            <path d="M21.4,60.2 C21.3,61.7 20.9,63 20.1,64.2 C19.8,64.7 19.4,65.2 18.9,65.7 C18.4,66.2 17.8,66.6 17.1,67 C16.4,67.4 15.6,67.7 14.6,67.9 C13.7,68.1 12.6,68.2 11.3,68.2 C9.7,68.2 8.2,67.9 6.8,67.3 C5.4,66.7 4.2,65.9 3.1,64.8 C2.1,63.8 1.2,62.5 0.6,61.1 C0.3,59.7 0,58.2 0,56.6 C0,55 0.3,53.5 0.9,52.1 C1.5,50.7 2.3,49.5 3.4,48.4 C4.4,47.4 5.7,46.5 7.1,45.9 C8.5,45.3 10,45 11.6,45 C13.2,45 14.7,45.3 16.1,45.9 C17.5,46.5 18.7,47.3 19.7,48.4 L16.3,51.7 C15.7,51.1 15,50.6 14.2,50.3 C13.4,49.9 12.5,49.8 11.6,49.8 C10.7,49.8 9.8,50 9,50.3 C8.2,50.6 7.5,51.1 6.9,51.7 C6.3,52.3 5.8,53 5.5,53.8 C5.2,54.6 5,55.5 5,56.4 C5,57.3 5.2,58.2 5.5,59 C5.8,59.8 6.3,60.5 6.9,61.1 C7.3,62 8,62.5 8.9,62.8 C9.7,63.1 10.6,63.3 11.5,63.3 C12.8,63.3 13.8,63.1 14.5,62.8 C15.2,62.5 15.7,62.1 16,61.7 C16.4,61.2 16.6,60.7 16.6,60.1 L11.4,60.1 L11.4,55.3 L21.4,55.3 L21.4,60.2 Z" id="Shape" fill="#161616" fill-rule="nonzero"></path>
            <path d="M34.3,61.1 L32,61.1 L32,67.3 L27.2,67.3 L27.2,45.9 L36.5,45.9 C37.5,45.9 38.5,46.1 39.4,46.5 C40.3,46.9 41.1,47.4 41.8,48.1 C42.5,48.8 43,49.6 43.4,50.5 C43.8,51.4 44,52.4 44,53.4 C44,54.2 43.9,55 43.6,55.7 C43.4,56.4 43,57.1 42.6,57.7 C42.2,58.3 41.7,58.9 41.1,59.3 C40.5,59.8 39.9,60.1 39.1,60.4 L44,67.1 L38.1,67.1 L34.3,61.1 Z M32.1,56.6 L36.6,56.6 C37,56.6 37.4,56.5 37.8,56.4 C38.2,56.2 38.5,56 38.8,55.7 C39.1,55.4 39.3,55.1 39.5,54.7 C39.7,54.3 39.7,53.9 39.7,53.5 C39.7,52.7 39.4,52 38.9,51.4 C38.4,50.8 37.7,50.5 37,50.4 L32.1,50.4 L32.1,56.6 Z" id="Shape" fill="#161616" fill-rule="nonzero"></path>
            <path d="M49.1,56.6 C49.1,55 49.4,53.5 50,52.1 C50.6,50.7 51.4,49.5 52.5,48.4 C53.5,47.4 54.8,46.5 56.1,45.9 C57.5,45.3 59,45 60.6,45 C62.2,45 63.7,45.3 65.1,45.9 C66.5,46.5 67.7,47.3 68.8,48.4 C69.8,49.4 70.7,50.7 71.3,52.1 C71.9,53.5 72.2,55 72.2,56.6 C72.2,58.2 71.9,59.7 71.3,61.1 C70.7,62.5 69.9,63.7 68.8,64.7 C67.8,65.7 66.5,66.6 65.1,67.2 C63.7,67.8 62.2,68.1 60.6,68.1 C59,68.1 57.5,67.8 56.1,67.2 C54.7,66.6 53.5,65.8 52.5,64.7 C51.5,63.7 50.6,62.4 50,61.1 C49.4,59.7 49.1,58.2 49.1,56.6 Z M53.8,56.6 C53.8,57.5 54,58.4 54.3,59.2 C54.7,60 55.1,60.7 55.7,61.3 C56.3,61.9 57,62.4 57.8,62.7 C58.6,63 59.5,63.2 60.4,63.2 C61.3,63.2 62.2,63 63,62.7 C63.8,62.4 64.5,61.9 65.2,61.3 C65.8,60.7 66.3,60 66.6,59.2 C66.9,58.4 67.1,57.5 67.1,56.6 C67.1,55.7 66.9,54.8 66.6,54 C66.3,53.2 65.8,52.5 65.2,51.9 C64.6,51.3 63.9,50.8 63,50.4 C62.2,50 61.3,49.9 60.4,49.9 C59.5,49.9 58.6,50.1 57.8,50.4 C57,50.8 56.3,51.2 55.7,51.9 C55.1,52.5 54.6,53.2 54.3,54 C54,54.8 53.8,55.7 53.8,56.6 Z" id="Shape" fill="#161616" fill-rule="nonzero"></path>
            <path d="M91.7,45.9 L96.5,45.9 L96.5,58.8 C96.5,60.1 96.3,61.3 95.8,62.4 C95.3,63.5 94.6,64.5 93.8,65.3 C93,66.1 92,66.8 90.9,67.3 C89.8,67.8 88.6,68 87.3,68 C86,68 84.8,67.8 83.7,67.3 C82.6,66.8 81.6,66.2 80.8,65.3 C80,64.5 79.3,63.5 78.8,62.4 C78.3,61.3 78.1,60.1 78.1,58.8 L78.1,45.9 L82.9,45.9 L82.9,58.8 C82.9,59.4 83,60 83.3,60.6 C83.5,61.1 83.9,61.6 84.3,62 C84.7,62.4 85.2,62.7 85.7,63 C86.2,63.2 86.8,63.4 87.5,63.4 C88.1,63.4 88.7,63.3 89.3,63 C89.8,62.8 90.3,62.4 90.7,62 C91.1,61.6 91.4,61.1 91.7,60.6 C91.9,60.1 92.1,59.5 92.1,58.8 L92.1,45.9 L91.7,45.9 Z" id="Shape" fill="#161616" fill-rule="nonzero"></path>
            <path d="M119.1,53.5 C119.1,54.5 118.9,55.5 118.5,56.4 C118.1,57.3 117.6,58.1 116.9,58.8 C116.2,59.5 115.4,60 114.5,60.4 C113.6,60.8 112.6,61 111.6,61 L107,61 L107,67.2 L102.2,67.2 L102.2,45.9 L111.5,45.9 C112.5,45.9 113.5,46.1 114.4,46.5 C115.3,46.9 116.1,47.4 116.8,48.1 C117.5,48.8 118,49.6 118.4,50.5 C118.9,51.5 119.1,52.5 119.1,53.5 Z M107,56.6 L111.5,56.6 C111.9,56.6 112.3,56.5 112.7,56.4 C113.1,56.2 113.4,56 113.7,55.7 C114,55.4 114.2,55.1 114.4,54.7 C114.6,54.3 114.6,53.9 114.6,53.5 C114.6,52.7 114.3,52 113.8,51.4 C113.3,50.8 112.6,50.5 111.9,50.4 L107,50.4 L107,56.6 Z" id="Shape" fill="#161616" fill-rule="nonzero"></path>
            <polygon id="Shape" fill="#161616" fill-rule="nonzero" points="128.8 62.5 137.8 62.5 137.8 67.3 124 67.3 124 45.9 137.8 45.9 137.8 50.7 128.8 50.7 128.8 54 136.3 54 136.3 58.8 128.8 58.8"></polygon>
            <path d="M186.3,0 C193.3,0 199.2,0.9 204,2.8 C208.8,4.7 212.7,7 215.8,9.9 C218.9,12.8 221.3,15.9 223,19.3 C224.7,22.7 225.9,25.9 226.7,29 C227.5,32.1 228,34.8 228.1,37.2 C228.2,39.5 228.3,41.1 228.3,41.8 C227.9,49.6 226.1,56.5 223,62.7 C221.6,65.3 220,67.9 218,70.4 C216,72.9 213.5,75.1 210.6,77.1 C207.7,79 204.2,80.6 200.2,81.8 C196.2,83 191.6,83.6 186.3,83.6 L155,83.6 L155,0 L186.3,0 Z M185.1,64.9 C188,64.9 190.5,64.6 192.7,63.9 C194.9,63.3 196.9,62.4 198.5,61.3 C200.2,60.2 201.6,59 202.7,57.6 C203.8,56.2 204.7,54.8 205.4,53.4 C207.1,50.1 208,46.2 208.3,41.8 C208.3,41.3 208.3,40.4 208.2,39 C208.1,37.6 207.9,36 207.4,34.2 C207,32.4 206.3,30.5 205.4,28.6 C204.5,26.6 203.2,24.9 201.5,23.2 C199.8,21.6 197.6,20.2 194.9,19.1 C192.2,18 189,17.5 185.1,17.5 L173.7,17.5 L173.7,64.8 L185.1,64.8 L185.1,64.9 Z" id="Shape" fill="#268BCD" fill-rule="nonzero"></path>
            <path d="M0.2,83.5 L138.2,83.5" id="Shape" stroke="#268BCD" stroke-width="1.2937"></path>
            <path d="M0.2,0.7 L138.2,0.7" id="Shape" stroke="#268BCD" stroke-width="1.2937"></path>
            <path d="M13,124 L9,124 L9,135.1 L0.5,135.1 L0.5,96.9 L17.1,96.9 C19,96.9 20.7,97.3 22.4,98 C24.1,98.7 25.5,99.7 26.7,100.9 C27.9,102.1 28.9,103.6 29.6,105.2 C30.3,106.9 30.7,108.6 30.7,110.5 C30.7,112 30.5,113.3 30,114.6 C29.6,115.9 29,117.1 28.2,118.2 C27.4,119.3 26.5,120.3 25.5,121.1 C24.4,122 23.3,122.6 22,123.1 L30.7,135 L20.1,135 L13,124 Z M9,116 L17.1,116 C17.9,116 18.6,115.9 19.3,115.6 C20,115.3 20.6,114.9 21.1,114.4 C21.6,113.9 22,113.3 22.3,112.6 C22.6,111.9 22.7,111.2 22.7,110.4 C22.7,109 22.2,107.8 21.3,106.7 C20.3,105.7 19.2,105.1 17.8,104.9 L9,104.9 L9,116 Z" id="Shape" fill="#161616" fill-rule="nonzero"></path>
            <polygon id="Shape" fill="#161616" fill-rule="nonzero" points="60.4 126.6 76.6 126.6 76.6 135.1 51.9 135.1 51.9 96.9 76.6 96.9 76.6 105.4 60.4 105.4 60.4 111.3 73.9 111.3 73.9 119.8 60.4 119.8"></polygon>
            <path d="M96.2,131 C96.2,131 96.5,130.7 97,130 C97.5,129.3 98.1,128.5 98.8,127.7 C99.6,126.7 100.4,125.6 101.4,124.4 C102.4,125.1 103.4,125.7 104.4,126.3 C105.3,126.8 106.2,127.2 107.2,127.6 C108.2,128 109.2,128.1 110.1,128.1 C110.6,128.1 111.2,128 111.8,127.9 C112.4,127.7 112.9,127.5 113.3,127.2 C113.8,126.9 114.1,126.6 114.4,126.2 C114.7,125.8 114.8,125.4 114.8,124.9 C114.8,123.8 114.2,122.8 112.9,121.9 C111.6,121 110.1,120.3 108.2,119.5 C107,119 105.8,118.4 104.6,117.7 C103.3,117 102.2,116.1 101.2,115.1 C100.2,114.1 99.3,112.9 98.7,111.6 C98,110.3 97.7,108.8 97.7,107.2 C97.7,105.6 98,104.1 98.5,102.7 C99,101.3 99.8,100 100.9,98.9 C102,97.8 103.3,96.9 104.8,96.3 C106.4,95.7 108.2,95.3 110.3,95.3 C111.9,95.3 113.4,95.5 114.8,95.9 C116.1,96.3 117.4,96.8 118.5,97.3 C119.6,97.8 120.5,98.4 121.3,99 C122.1,99.6 122.8,100.1 123.3,100.5 L118.3,107.3 C118.2,107.2 117.9,107 117.3,106.6 C116.8,106.2 116.1,105.8 115.4,105.4 C114.6,105 113.8,104.6 112.8,104.3 C111.9,104 110.9,103.8 109.9,103.8 C108.9,103.8 108.1,104.1 107.3,104.6 C106.6,105.1 106.2,105.8 106.2,106.5 C106.2,107.5 106.7,108.4 107.6,109.3 C108.6,110.1 110.1,111 112.3,111.8 C113.4,112.2 114.5,112.8 115.8,113.4 C117.1,114.1 118.3,114.9 119.4,115.9 C120.5,116.9 121.4,118.1 122.2,119.4 C122.9,120.8 123.3,122.4 123.3,124.2 C123.3,125.6 123,127 122.4,128.5 C121.8,129.9 121,131.2 119.9,132.4 C118.8,133.6 117.4,134.5 115.8,135.3 C114.2,136 112.4,136.4 110.4,136.4 C108.6,136.4 106.9,136.2 105.3,135.7 C103.7,135.2 102.2,134.7 100.9,134 C99.6,133.4 98.5,132.7 97.7,132.1 C97,131.7 96.4,131.3 96.2,131 Z" id="Shape" fill="#161616" fill-rule="nonzero"></path>
            <polygon id="Shape" fill="#161616" fill-rule="nonzero" points="159.4 105.4 159.4 135.1 150.9 135.1 150.9 105.4 142.9 105.4 142.9 96.9 167.6 96.9 167.6 105.4 159.4 105.4"></polygon>
            <path d="M186.1,116 C186.1,113.1 186.6,110.4 187.7,107.9 C188.8,105.4 190.2,103.2 192.1,101.4 C194,99.5 196.1,98.1 198.6,97 C201.1,95.9 203.7,95.4 206.6,95.4 C209.5,95.4 212.2,95.9 214.7,97 C217.2,98.1 219.4,99.5 221.2,101.4 C223.1,103.3 224.5,105.4 225.6,107.9 C226.7,110.4 227.2,113.1 227.2,116 C227.2,118.8 226.7,121.5 225.6,124 C224.5,126.5 223.1,128.7 221.2,130.5 C219.3,132.4 217.2,133.8 214.7,134.9 C212.2,136 209.5,136.5 206.6,136.5 C203.8,136.5 201.1,136 198.6,134.9 C196.1,133.8 193.9,132.4 192.1,130.5 C190.2,128.6 188.8,126.5 187.7,124 C186.7,121.5 186.1,118.9 186.1,116 Z M194.6,116 C194.6,117.7 194.9,119.3 195.6,120.7 C196.2,122.2 197.1,123.4 198.2,124.5 C199.3,125.6 200.5,126.4 202,127 C203.5,127.6 205,127.9 206.6,127.9 C208.3,127.9 209.9,127.6 211.3,127 C212.8,126.4 214.1,125.5 215.2,124.5 C216.3,123.4 217.2,122.2 217.8,120.7 C218.4,119.2 218.7,117.7 218.7,116 C218.7,114.3 218.4,112.8 217.8,111.3 C217.2,109.8 216.3,108.6 215.2,107.5 C214.1,106.4 212.8,105.5 211.3,104.9 C209.8,104.3 208.2,103.9 206.6,103.9 C205,103.9 203.4,104.2 202,104.9 C200.5,105.5 199.3,106.4 198.2,107.5 C197.1,108.6 196.3,109.9 195.6,111.3 C195,112.8 194.6,114.3 194.6,116 Z" id="Shape" fill="#161616" fill-rule="nonzero"></path>
        </g>
    </g>
</svg>