<svg xmlns="http://www.w3.org/2000/svg" width="477.8" height="61.229" viewBox="0 0 477.8 61.229"><g transform="translate(-137.47 -270.071)"><text transform="translate(214.66 327.3)" fill="#fff" font-size="16.74" font-family="Roboto-Thin, Roboto" font-weight="200"><tspan x="0" y="0" letter-spacing="0.14em">CENTRE DE VÉ</tspan><tspan y="0" letter-spacing="0.13em">L</tspan><tspan y="0" letter-spacing="0.14em">O DE MONT</tspan><tspan y="0" letter-spacing="0.13em">A</tspan><tspan y="0" letter-spacing="0.14em">GN</tspan><tspan y="0">E</tspan></text><path d="M271.39,289.59Z" fill="#fff"/><path d="M384.68,285.27h0l1.7-5.61,1.77-5.86h0Z" fill="#fff"/><path d="M157.32,270.54h-3.69L146.53,294h3.7Z" fill="#fff"/><path d="M208.39,323.94l.44-1.45H137.91l-.44,1.45Z" fill="#fff"/><path d="M599.12,323.94l.44-1.45H528.64l-.44,1.45Z" fill="#fff"/><path d="M149.17,297.49h-3.7l-.98,3.26H161.4l.99-3.26Z" fill="#fff"/><path d="M203.13,270.54H185.6l-.98,3.24h17.53Z" fill="#fff"/><path d="M184.37,286.79h12.09l.98-3.26H185.35l1.92-6.34h-3.68l-7.12,23.56h17.72l.98-3.26H181.13Z" fill="#fff"/><path d="M276,297.08c-1.22-1.69-3.35-2.54-6.41-2.54H259.35l-3.5,11.57h3.68L262,297.8h6.82a4.34,4.34,0,0,1,3.8,1.69,5,5,0,0,1,.26,4.32,7.69,7.69,0,0,1-7.86,5.86H254.77l-4.56,15.08h3.68l3.57-11.82H264a13.2,13.2,0,0,0,8-2.38,12.54,12.54,0,0,0,4.59-6.77c.84-2.78.65-5-.57-6.7" transform="translate(-20 -24)" fill="#dd1e33"/><path d="M271.39,289.59H267.8l-7.32,11.16h3.8l5.01-7.9h8.55l.2-3.26Z" fill="#dd1e33"/><path d="M280.29,270.54l.1,4.93v-.01l.48,14.13h-.01l.15,3.99H281l.25,7.17h3.77l-1.53-30.21Z" fill="#dd1e33"/><path d="M319.49,293.93l-.01-.01-2.06,6.83h3.66l9.14-30.21h-3.66Z" fill="#dd1e33"/><path d="M308.78,270.54l-9.14,30.21h3.7l7.04-23.28,5.45,18.11,2.08-6.9-5.43-18.14Z" fill="#dd1e33"/><path d="M383.35,295.88a7.92,7.92,0,0,0-5.38-1.75,12.75,12.75,0,0,0-6.39,1.77,17.8,17.8,0,0,0-5.5,5.12,25.939,25.939,0,0,0-3.73,7.69l-.65,2.18a18.3,18.3,0,0,0-.83,7.52,7.61,7.61,0,0,0,2.44,5,7.8,7.8,0,0,0,5.31,1.76,12.72,12.72,0,0,0,6.43-1.75,17.249,17.249,0,0,0,5.44-5.05,26.3,26.3,0,0,0,3.72-7.75l.58-1.91a19.51,19.51,0,0,0,1-7.74,7.56,7.56,0,0,0-2.4-5.09m-2.89,15A19.351,19.351,0,0,1,376,319a8.74,8.74,0,0,1-6.36,2.81,4.489,4.489,0,0,1-4.67-3c-.75-2-.59-4.72.46-8.19l.67-2.22a19.111,19.111,0,0,1,4.47-8,8.8,8.8,0,0,1,6.36-2.88c2.39,0,3.95,1,4.7,2.88s.58,4.66-.5,8.24Z" transform="translate(-20 -24)" fill="#dd1e33"/><path d="M418.82,308.55a11.92,11.92,0,0,0,2.89-4.92c.9-3,.73-5.21-.49-6.76s-3.41-2.33-6.55-2.33h-2.38l-1,3.26h2.47c1.94,0,3.27.52,4,1.52s.8,2.43.24,4.3a7.791,7.791,0,0,1-2.87,4.12,7.92,7.92,0,0,1-4.82,1.53h-2.49l-1,3.26h3.4l2.35,12.22h3.95l.07-.25L414,311.68a13,13,0,0,0,4.87-3.13" transform="translate(-20 -24)" fill="#fff"/><path d="M376.3,300.75H380l3.69-12.22h.01l.98-3.26h0l3.47-11.47h0l.99-3.26h-3.7Z" fill="#fff"/><path d="M428.47,270.54l.1,5.18-.01.08.43,12.51.2,5.51-.02.01.24,6.92h3.77l-1.53-30.21Z" fill="#fff"/><path d="M415.79,289.84l-7.15,10.91h3.8l5.01-7.9h8.59l.18-3.01Z" fill="#fff"/><path d="M447.8,300.75h3.31l9.14-30.21h-3.31Z" fill="#fff"/><path d="M463.35,295.19,462,275.17l-2.9,9.59,1.15,15.99h2.82l16.56-24.46-4.19,12.7-3.56,11.76h3.68l9.14-30.21h-4.77Z" fill="#fff"/><path d="M493.19,300.75h3.68L506,270.54h-3.67Z" fill="#fff"/><path d="M545.45,321.78c-2.37,0-3.93-1-4.66-3s-.57-4.72.47-8.18l.67-2.22a19.12,19.12,0,0,1,4.48-8,8.77,8.77,0,0,1,6.33-2.88q3.64,0,4.73,2.9c.73,1.93.55,4.67-.52,8.22l-.68,2.24a20.619,20.619,0,0,1-3.9,7.48l2,2.32a19.24,19.24,0,0,0,2.12-2.55,25.829,25.829,0,0,0,3.57-7.54l.58-1.93a19.461,19.461,0,0,0,1-7.72,7.62,7.62,0,0,0-2.4-5.08,8,8,0,0,0-5.4-1.76,12.689,12.689,0,0,0-6.39,1.77,17.69,17.69,0,0,0-5.5,5.12,25.7,25.7,0,0,0-3.73,7.69l-.66,2.18a18.64,18.64,0,0,0-.83,7.52,7.659,7.659,0,0,0,2.45,5,7.79,7.79,0,0,0,5.31,1.76,12.448,12.448,0,0,0,3-.38l4.35,5.06,3.16-2.4-5.62-6.59a8.23,8.23,0,0,1-3.93,1" transform="translate(-20 -24)" fill="#fff"/><path d="M591.18,315a10.16,10.16,0,0,1-3.18,5.1,8.12,8.12,0,0,1-5.33,1.81q-3.09,0-4.2-1.82c-.75-1.21-.79-2.9-.13-5.09l6.19-20.46h-3.64l-6.22,20.58c-.92,3.13-.75,5.59.53,7.37s3.43,2.68,6.49,2.68l1-.05a13.16,13.16,0,0,0,7.6-3.05,14.32,14.32,0,0,0,4.6-7l6.21-20.54h-3.7Z" transform="translate(-20 -24)" fill="#fff"/><path d="M615.27,270.54H597.75l-.98,3.24h17.52Z" fill="#fff"/><path d="M593.27,297.49l3.24-10.7H608.6l.98-3.26H597.49l1.92-6.34h-3.68l-7.12,23.56h17.72l.98-3.26Z" fill="#fff"/></g></svg>